<?xml version="1.0" encoding="utf-8"?>
<!-- Generator: Adobe Illustrator 24.1.2, SVG Export Plug-In . SVG Version: 6.00 Build 0)  -->
<svg version="1.1" id="Layer_1" xmlns="http://www.w3.org/2000/svg" xmlns:xlink="http://www.w3.org/1999/xlink" x="0px" y="0px"
	 viewBox="0 0 300 300" style="enable-background:new 0 0 300 300;" xml:space="preserve">
<style type="text/css">
	.st0{fill:#FFFFFF;}
	.st1{fill:none;stroke:#000000;stroke-width:3;stroke-miterlimit:10;}
	.st2{fill:none;stroke:#000000;stroke-width:3;stroke-miterlimit:10;stroke-dasharray:11.8679,11.8679;}
	.st3{fill:none;stroke:#000000;stroke-width:3;stroke-miterlimit:10;stroke-dasharray:11.9038,11.9038;}
	.st4{fill:none;stroke:#000000;stroke-width:3;stroke-miterlimit:10;stroke-dasharray:11.9227,11.9227;}
	.st5{fill:none;stroke:#000000;stroke-width:3;stroke-miterlimit:10;stroke-dasharray:11.9008,11.9008;}
</style>
<g>
	<path class="st0" d="M296.02,84.04l0.07-0.59l-86.21-0.01c-8.24,0.69-14.92-6.04-14.92-14.34l0-0.67c0-4.52,2.07-8.73,5.5-11.65
		c7.03-5.98,11.37-15.06,10.93-25.16c-0.72-16.44-14.39-29.61-30.73-29.66c-17.08-0.05-30.94,13.88-30.95,31.07
		c0,9.59,4.32,18.17,11.1,23.87c3.39,2.85,5.35,7.07,5.35,11.52l0,0.67c0,8.3-6.68,15.03-14.93,15.03l-67.7-0.35l-0.09-0.04
		l-0.15,0.18l0,0l0.34,65.41c0,8.3-6.68,15.03-14.92,15.03h-0.67c-4.42,0-8.61-1.97-11.44-5.39c-5.66-6.83-14.18-11.18-23.7-11.18
		c-17.07,0-30.9,13.96-30.86,31.16c0.05,16.46,13.12,30.22,29.45,30.95c10.02,0.45,19.05-3.92,24.98-11
		c2.9-3.45,7.08-5.54,11.57-5.54h0.66c8.24,0,14.92,6.73,14.92,15.03l0,89.57l-0.1-0.07l0.44-0.28l-0.34,0.35l67.7,0
		c8.24,0,14.92-6.73,14.92-15.03v-0.67c0-4.52-2.07-8.73-5.5-11.65c-7.03-5.98-11.37-15.06-10.93-25.16
		c0.72-16.44,14.39-29.61,30.74-29.66c17.08-0.05,30.94,13.88,30.94,31.07c0,9.59-4.32,18.17-11.1,23.87
		c-3.39,2.85-5.35,7.07-5.35,11.52v0.67c0,8.3,6.68,15.03,14.92,15.03l86.21-0.34l0.09-0.04h1.46l-0.25-0.65l0.56-85.56
		c-0.01-8.3-6.69-15.02-14.94-15.01l-0.67,0c-4.42,0-8.61,1.98-11.44,5.4c-5.65,6.84-14.17,11.19-23.69,11.2
		c-17.07,0.01-30.92-13.93-30.88-31.13c0.03-16.46,13.1-30.23,29.43-30.98c10.02-0.46,19.05,3.91,24.99,10.98
		c2.9,3.45,7.09,5.53,11.58,5.53l0.66,0c8.24-0.01,14.92-6.74,14.91-15.04l-0.07-68.86l-0.1,0.07"/>
	<g>
		<polyline class="st1" points="296.02,84.04 296.08,83.45 290.08,83.45 		"/>
		<path class="st2" d="M278.22,83.45l-68.35-0.01c-8.24,0.69-14.92-6.04-14.92-14.34l0-0.67c0-4.52,2.07-8.73,5.5-11.65
			c7.03-5.98,11.37-15.06,10.93-25.16c-0.72-16.44-14.39-29.61-30.73-29.66c-17.08-0.05-30.94,13.88-30.95,31.07
			c0,9.59,4.32,18.17,11.1,23.87c3.39,2.85,5.35,7.07,5.35,11.52l0,0.67c0,8.3-6.68,15.03-14.93,15.03l-55.87-0.29"/>
		<polyline class="st1" points="89.42,83.81 83.52,83.78 83.43,83.74 83.28,83.92 83.31,89.69 		"/>
		<path class="st3" d="M83.37,101.59l0.25,47.74c0,8.3-6.68,15.03-14.92,15.03h-0.67c-4.42,0-8.61-1.97-11.44-5.39
			c-5.66-6.83-14.18-11.18-23.7-11.18c-17.07,0-30.9,13.96-30.86,31.16c0.05,16.46,13.12,30.22,29.45,30.95
			c10.02,0.45,19.05-3.92,24.98-11c2.9-3.45,7.08-5.54,11.57-5.54h0.66c8.24,0,14.92,6.73,14.92,15.03l0,77.62"/>
		<polyline class="st1" points="83.62,291.95 83.62,297.95 83.52,297.88 83.96,297.61 83.62,297.95 89.62,297.95 		"/>
		<path class="st4" d="M101.54,297.95l49.78,0c8.24,0,14.92-6.73,14.92-15.03v-0.67c0-4.52-2.07-8.73-5.5-11.65
			c-7.03-5.98-11.37-15.06-10.93-25.16c0.72-16.44,14.39-29.61,30.74-29.66c17.08-0.05,30.94,13.88,30.94,31.07
			c0,9.59-4.32,18.17-11.1,23.87c-3.39,2.85-5.35,7.07-5.35,11.52v0.67c0,8.3,6.68,15.03,14.92,15.03l75.82-0.3"/>
		<polyline class="st1" points="291.75,297.62 296.18,297.61 296.28,297.57 297.74,297.57 297.49,296.92 297.52,291.62 		"/>
		<path class="st5" d="M297.6,279.72l0.45-68.36c-0.01-8.3-6.69-15.02-14.94-15.01l-0.67,0c-4.42,0-8.61,1.98-11.44,5.4
			c-5.65,6.84-14.17,11.19-23.69,11.2c-17.07,0.01-30.92-13.93-30.88-31.13c0.03-16.46,13.1-30.23,29.43-30.98
			c10.02-0.46,19.05,3.91,24.99,10.98c2.9,3.45,7.09,5.53,11.58,5.53l0.66,0c8.24-0.01,14.92-6.74,14.91-15.04l-0.06-56.91"/>
		<polyline class="st1" points="297.94,89.44 297.93,83.44 297.83,83.51 		"/>
	</g>
</g>
</svg>
